<mxfile host="Electron" modified="2024-03-22T12:50:28.984Z" agent="Mozilla/5.0 (Windows NT 10.0; Win64; x64) AppleWebKit/537.36 (KHTML, like Gecko) draw.io/24.0.4 Chrome/120.0.6099.109 Electron/28.1.0 Safari/537.36" etag="33Mwn_3BjTykJzytEPzC" version="24.0.4" type="device">
  <diagram name="Page-1" id="6LWX0UeYfgnCdg5eFKYm">
    <mxGraphModel dx="1154" dy="611" grid="1" gridSize="10" guides="1" tooltips="1" connect="1" arrows="1" fold="1" page="1" pageScale="1" pageWidth="850" pageHeight="1100" math="0" shadow="0">
      <root>
        <mxCell id="0" />
        <mxCell id="1" parent="0" />
        <mxCell id="8QXJeh2JSXmlyYFX5v0f-2" value="&lt;u&gt;AuthorID&lt;/u&gt;" style="ellipse;whiteSpace=wrap;html=1;" vertex="1" parent="1">
          <mxGeometry x="385" y="190" width="80" height="30" as="geometry" />
        </mxCell>
        <mxCell id="8QXJeh2JSXmlyYFX5v0f-3" value="Kitap" style="rounded=0;whiteSpace=wrap;html=1;" vertex="1" parent="1">
          <mxGeometry x="120" y="250" width="120" height="60" as="geometry" />
        </mxCell>
        <mxCell id="8QXJeh2JSXmlyYFX5v0f-4" value="Yazar" style="rounded=0;whiteSpace=wrap;html=1;" vertex="1" parent="1">
          <mxGeometry x="400" y="285" width="120" height="60" as="geometry" />
        </mxCell>
        <mxCell id="8QXJeh2JSXmlyYFX5v0f-6" value="Yazar" style="ellipse;whiteSpace=wrap;html=1;" vertex="1" parent="1">
          <mxGeometry y="300" width="80" height="30" as="geometry" />
        </mxCell>
        <mxCell id="8QXJeh2JSXmlyYFX5v0f-7" value="Baslik" style="ellipse;whiteSpace=wrap;html=1;" vertex="1" parent="1">
          <mxGeometry y="260" width="80" height="30" as="geometry" />
        </mxCell>
        <mxCell id="8QXJeh2JSXmlyYFX5v0f-8" value="&lt;u&gt;ISBN&lt;/u&gt;" style="ellipse;whiteSpace=wrap;html=1;" vertex="1" parent="1">
          <mxGeometry x="20" y="190" width="80" height="30" as="geometry" />
        </mxCell>
        <mxCell id="8QXJeh2JSXmlyYFX5v0f-9" value="Tur" style="ellipse;whiteSpace=wrap;html=1;" vertex="1" parent="1">
          <mxGeometry x="30" y="360" width="80" height="30" as="geometry" />
        </mxCell>
        <mxCell id="8QXJeh2JSXmlyYFX5v0f-10" value="Adi" style="ellipse;whiteSpace=wrap;html=1;" vertex="1" parent="1">
          <mxGeometry x="510" y="190" width="80" height="30" as="geometry" />
        </mxCell>
        <mxCell id="8QXJeh2JSXmlyYFX5v0f-18" value="" style="endArrow=none;html=1;rounded=0;entryX=1;entryY=1;entryDx=0;entryDy=0;" edge="1" parent="1" source="8QXJeh2JSXmlyYFX5v0f-3" target="8QXJeh2JSXmlyYFX5v0f-8">
          <mxGeometry width="50" height="50" relative="1" as="geometry">
            <mxPoint x="100" y="260" as="sourcePoint" />
            <mxPoint x="150" y="210" as="targetPoint" />
          </mxGeometry>
        </mxCell>
        <mxCell id="8QXJeh2JSXmlyYFX5v0f-20" value="" style="endArrow=none;html=1;rounded=0;entryX=0;entryY=0.5;entryDx=0;entryDy=0;exitX=1;exitY=0.5;exitDx=0;exitDy=0;" edge="1" parent="1" source="8QXJeh2JSXmlyYFX5v0f-7" target="8QXJeh2JSXmlyYFX5v0f-3">
          <mxGeometry width="50" height="50" relative="1" as="geometry">
            <mxPoint x="90" y="290" as="sourcePoint" />
            <mxPoint x="130" y="345" as="targetPoint" />
          </mxGeometry>
        </mxCell>
        <mxCell id="8QXJeh2JSXmlyYFX5v0f-21" value="" style="endArrow=none;html=1;rounded=0;exitX=1;exitY=0;exitDx=0;exitDy=0;" edge="1" parent="1" source="8QXJeh2JSXmlyYFX5v0f-6" target="8QXJeh2JSXmlyYFX5v0f-3">
          <mxGeometry width="50" height="50" relative="1" as="geometry">
            <mxPoint x="70" y="310" as="sourcePoint" />
            <mxPoint x="130" y="300" as="targetPoint" />
          </mxGeometry>
        </mxCell>
        <mxCell id="8QXJeh2JSXmlyYFX5v0f-22" value="" style="endArrow=none;html=1;rounded=0;exitX=1;exitY=0;exitDx=0;exitDy=0;" edge="1" parent="1" source="8QXJeh2JSXmlyYFX5v0f-9" target="8QXJeh2JSXmlyYFX5v0f-3">
          <mxGeometry width="50" height="50" relative="1" as="geometry">
            <mxPoint x="100" y="370" as="sourcePoint" />
            <mxPoint x="150" y="320" as="targetPoint" />
          </mxGeometry>
        </mxCell>
        <mxCell id="8QXJeh2JSXmlyYFX5v0f-43" value="Odunc Alma" style="rounded=0;whiteSpace=wrap;html=1;flipV=1;flipH=1;" vertex="1" parent="1">
          <mxGeometry x="270" y="490" width="120" height="60" as="geometry" />
        </mxCell>
        <mxCell id="8QXJeh2JSXmlyYFX5v0f-44" value="Iade Edildigi Tarih" style="ellipse;whiteSpace=wrap;html=1;flipV=1;flipH=1;" vertex="1" parent="1">
          <mxGeometry x="460" y="520" width="110" height="30" as="geometry" />
        </mxCell>
        <mxCell id="8QXJeh2JSXmlyYFX5v0f-45" value="Ofunv Alindigi Tarih" style="ellipse;whiteSpace=wrap;html=1;flipV=1;flipH=1;" vertex="1" parent="1">
          <mxGeometry x="460" y="480" width="120" height="30" as="geometry" />
        </mxCell>
        <mxCell id="8QXJeh2JSXmlyYFX5v0f-46" value="&lt;u&gt;Odunc Alma Kimlik&lt;/u&gt;" style="ellipse;whiteSpace=wrap;html=1;flipV=1;flipH=1;" vertex="1" parent="1">
          <mxGeometry x="450" y="390" width="110" height="50" as="geometry" />
        </mxCell>
        <mxCell id="8QXJeh2JSXmlyYFX5v0f-47" value="Ceza Tutari" style="ellipse;whiteSpace=wrap;html=1;flipV=1;flipH=1;" vertex="1" parent="1">
          <mxGeometry x="490" y="580" width="80" height="30" as="geometry" />
        </mxCell>
        <mxCell id="8QXJeh2JSXmlyYFX5v0f-48" value="" style="endArrow=none;html=1;rounded=0;entryX=0;entryY=1;entryDx=0;entryDy=0;" edge="1" parent="1" source="8QXJeh2JSXmlyYFX5v0f-43" target="8QXJeh2JSXmlyYFX5v0f-46">
          <mxGeometry width="50" height="50" relative="1" as="geometry">
            <mxPoint x="276.72551724138657" y="445.34482758620925" as="sourcePoint" />
            <mxPoint x="226.72551724138657" y="495.34482758620925" as="targetPoint" />
          </mxGeometry>
        </mxCell>
        <mxCell id="8QXJeh2JSXmlyYFX5v0f-49" value="" style="endArrow=none;html=1;rounded=0;entryX=1;entryY=0.5;entryDx=0;entryDy=0;exitX=0;exitY=0.5;exitDx=0;exitDy=0;" edge="1" parent="1" source="8QXJeh2JSXmlyYFX5v0f-45" target="8QXJeh2JSXmlyYFX5v0f-43">
          <mxGeometry width="50" height="50" relative="1" as="geometry">
            <mxPoint x="260" y="505" as="sourcePoint" />
            <mxPoint x="220" y="450" as="targetPoint" />
          </mxGeometry>
        </mxCell>
        <mxCell id="8QXJeh2JSXmlyYFX5v0f-50" value="" style="endArrow=none;html=1;rounded=0;exitX=0;exitY=0;exitDx=0;exitDy=0;" edge="1" parent="1" source="8QXJeh2JSXmlyYFX5v0f-44" target="8QXJeh2JSXmlyYFX5v0f-43">
          <mxGeometry width="50" height="50" relative="1" as="geometry">
            <mxPoint x="268.96551724138226" y="527.9781537802514" as="sourcePoint" />
            <mxPoint x="208.96551724138226" y="537.9781537802514" as="targetPoint" />
          </mxGeometry>
        </mxCell>
        <mxCell id="8QXJeh2JSXmlyYFX5v0f-51" value="" style="endArrow=none;html=1;rounded=0;exitX=0;exitY=0;exitDx=0;exitDy=0;" edge="1" parent="1" source="8QXJeh2JSXmlyYFX5v0f-47" target="8QXJeh2JSXmlyYFX5v0f-43">
          <mxGeometry width="50" height="50" relative="1" as="geometry">
            <mxPoint x="300.2486129643971" y="544.6551724137921" as="sourcePoint" />
            <mxPoint x="250.24861296439713" y="594.6551724137921" as="targetPoint" />
          </mxGeometry>
        </mxCell>
        <mxCell id="8QXJeh2JSXmlyYFX5v0f-56" value="Durum" style="ellipse;whiteSpace=wrap;html=1;flipV=1;flipH=1;" vertex="1" parent="1">
          <mxGeometry x="440" y="617" width="80" height="30" as="geometry" />
        </mxCell>
        <mxCell id="8QXJeh2JSXmlyYFX5v0f-57" value="" style="endArrow=none;html=1;rounded=0;exitX=0;exitY=0;exitDx=0;exitDy=0;entryX=0.75;entryY=1;entryDx=0;entryDy=0;" edge="1" parent="1" source="8QXJeh2JSXmlyYFX5v0f-56" target="8QXJeh2JSXmlyYFX5v0f-43">
          <mxGeometry width="50" height="50" relative="1" as="geometry">
            <mxPoint x="250.24861296439713" y="581.6551724137921" as="sourcePoint" />
            <mxPoint x="340" y="580" as="targetPoint" />
          </mxGeometry>
        </mxCell>
        <mxCell id="8QXJeh2JSXmlyYFX5v0f-58" value="" style="endArrow=none;html=1;rounded=0;entryX=0.5;entryY=1;entryDx=0;entryDy=0;exitX=0.25;exitY=0;exitDx=0;exitDy=0;" edge="1" parent="1" source="8QXJeh2JSXmlyYFX5v0f-4" target="8QXJeh2JSXmlyYFX5v0f-2">
          <mxGeometry width="50" height="50" relative="1" as="geometry">
            <mxPoint x="410" y="330" as="sourcePoint" />
            <mxPoint x="460" y="280" as="targetPoint" />
          </mxGeometry>
        </mxCell>
        <mxCell id="8QXJeh2JSXmlyYFX5v0f-59" value="" style="endArrow=none;html=1;rounded=0;entryX=0.5;entryY=1;entryDx=0;entryDy=0;exitX=0.75;exitY=0;exitDx=0;exitDy=0;" edge="1" parent="1" source="8QXJeh2JSXmlyYFX5v0f-4" target="8QXJeh2JSXmlyYFX5v0f-10">
          <mxGeometry width="50" height="50" relative="1" as="geometry">
            <mxPoint x="440" y="295" as="sourcePoint" />
            <mxPoint x="435" y="230" as="targetPoint" />
          </mxGeometry>
        </mxCell>
        <mxCell id="8QXJeh2JSXmlyYFX5v0f-60" value="Kitap Yazar" style="rhombus;whiteSpace=wrap;html=1;" vertex="1" parent="1">
          <mxGeometry x="280" y="265" width="80" height="55" as="geometry" />
        </mxCell>
        <mxCell id="8QXJeh2JSXmlyYFX5v0f-61" value="" style="endArrow=none;html=1;rounded=0;entryX=0;entryY=0.5;entryDx=0;entryDy=0;exitX=1;exitY=0.5;exitDx=0;exitDy=0;" edge="1" parent="1" source="8QXJeh2JSXmlyYFX5v0f-3" target="8QXJeh2JSXmlyYFX5v0f-60">
          <mxGeometry width="50" height="50" relative="1" as="geometry">
            <mxPoint x="90" y="310" as="sourcePoint" />
            <mxPoint x="140" y="260" as="targetPoint" />
          </mxGeometry>
        </mxCell>
        <mxCell id="8QXJeh2JSXmlyYFX5v0f-62" value="" style="endArrow=none;html=1;rounded=0;entryX=0;entryY=0.5;entryDx=0;entryDy=0;exitX=1;exitY=0.5;exitDx=0;exitDy=0;" edge="1" parent="1" source="8QXJeh2JSXmlyYFX5v0f-60" target="8QXJeh2JSXmlyYFX5v0f-4">
          <mxGeometry width="50" height="50" relative="1" as="geometry">
            <mxPoint x="90" y="310" as="sourcePoint" />
            <mxPoint x="140" y="260" as="targetPoint" />
          </mxGeometry>
        </mxCell>
        <mxCell id="8QXJeh2JSXmlyYFX5v0f-63" value="N" style="text;html=1;align=center;verticalAlign=middle;whiteSpace=wrap;rounded=0;" vertex="1" parent="1">
          <mxGeometry x="240" y="270" width="20" height="10" as="geometry" />
        </mxCell>
        <mxCell id="8QXJeh2JSXmlyYFX5v0f-64" value="1" style="text;html=1;align=center;verticalAlign=middle;whiteSpace=wrap;rounded=0;" vertex="1" parent="1">
          <mxGeometry x="365" y="290" width="60" height="30" as="geometry" />
        </mxCell>
        <mxCell id="8QXJeh2JSXmlyYFX5v0f-65" value="Kitap odunc&lt;div&gt;alma&lt;/div&gt;" style="rhombus;whiteSpace=wrap;html=1;" vertex="1" parent="1">
          <mxGeometry x="170" y="380" width="110" height="80" as="geometry" />
        </mxCell>
        <mxCell id="8QXJeh2JSXmlyYFX5v0f-66" value="" style="endArrow=none;html=1;rounded=0;entryX=0.75;entryY=1;entryDx=0;entryDy=0;exitX=0.5;exitY=0;exitDx=0;exitDy=0;" edge="1" parent="1" source="8QXJeh2JSXmlyYFX5v0f-65" target="8QXJeh2JSXmlyYFX5v0f-3">
          <mxGeometry width="50" height="50" relative="1" as="geometry">
            <mxPoint x="150" y="380" as="sourcePoint" />
            <mxPoint x="200" y="330" as="targetPoint" />
          </mxGeometry>
        </mxCell>
        <mxCell id="8QXJeh2JSXmlyYFX5v0f-67" value="" style="endArrow=none;html=1;rounded=0;entryX=0;entryY=0;entryDx=0;entryDy=0;exitX=0.5;exitY=1;exitDx=0;exitDy=0;" edge="1" parent="1" source="8QXJeh2JSXmlyYFX5v0f-65" target="8QXJeh2JSXmlyYFX5v0f-43">
          <mxGeometry width="50" height="50" relative="1" as="geometry">
            <mxPoint x="235" y="390" as="sourcePoint" />
            <mxPoint x="220" y="320" as="targetPoint" />
          </mxGeometry>
        </mxCell>
        <mxCell id="8QXJeh2JSXmlyYFX5v0f-68" value="N" style="text;html=1;align=center;verticalAlign=middle;whiteSpace=wrap;rounded=0;" vertex="1" parent="1">
          <mxGeometry x="215" y="320" width="20" height="10" as="geometry" />
        </mxCell>
        <mxCell id="8QXJeh2JSXmlyYFX5v0f-69" value="N" style="text;html=1;align=center;verticalAlign=middle;whiteSpace=wrap;rounded=0;" vertex="1" parent="1">
          <mxGeometry x="260" y="470" width="20" height="10" as="geometry" />
        </mxCell>
      </root>
    </mxGraphModel>
  </diagram>
</mxfile>
